<svg xmlns="http://www.w3.org/2000/svg" viewBox="0 0 1022.98 298"><defs><style>.cls-1{fill:#fff;}.cls-2{fill:#262324;}.cls-3{fill:#373637;}.cls-4{fill:#3a393a;}.cls-5{fill:#2d2a2b;}.cls-6{fill:#312f30;}.cls-7{fill:#2c2a2b;}.cls-8{fill:#fafafa;}.cls-9{fill:#fbfbfc;}.cls-10{fill:#383739;}.cls-11{fill:#2b292a;}.cls-12{fill:#2a2829;}.cls-13{fill:#2c292a;}.cls-14{fill:#2f2c2d;}.cls-15{fill:#363536;}.cls-16{fill:#f6f6f6;}.cls-17{fill:#363435;}.cls-18{fill:#ced0d2;}.cls-19{fill:#f4f4f5;}.cls-20{fill:#3a393b;}.cls-21{fill:#e8e9ea;}.cls-22{fill:#424244;}.cls-23{fill:#424143;}.cls-24{fill:#3e3d3f;}.cls-25{fill:#919396;}.cls-26{fill:#7b7d7f;}.cls-27{fill:#828487;}.cls-28{fill:#fdfdfd;}.cls-29{fill:#f5f5f5;}.cls-30{fill:#f3f3f4;}.cls-31{fill:#f2f2f3;}.cls-32{fill:#fefefe;}.cls-33{fill:#f7f7f7;}.cls-34{fill:#e4e5e6;}</style></defs><title>svgAsset 2logoTrue</title><g id="Layer_2" data-name="Layer 2"><g id="Layer_1-2" data-name="Layer 1"><path class="cls-1" d="M95,0c8.79,2.54,17.89,3.41,26.87,5,3.51.6,5.08,1.27,3.27,5.21-2.21,4.82-3.72,10-5.73,14.86-1.09,2.68-.53,3.56,2.39,3.44,15-.63,11,3.21,17.5-11.33,1.35-3,2.92-6.1,3.48-9.31,1-5.75,4-6.76,9.28-5.75,8.82,1.67,17.75,2.79,26.67,3.89,3,.37,3.17,1.26,1.91,3.68-3.09,5.91-6,11.91-9.26,18.47-.62-.76-.57-1.88.13-3.37,2-4.21,4.12-8.37,6.25-12.52,1.46-2.85,1.37-4.62-2.35-5.14Q163,5.37,150.67,3.55c-3.14-.47-5.07.66-6,3.75-1.69,5.42-4.24,10.51-6.23,15.81-1.69,4.51-4.53,6.43-9.41,6.45-11.69.05-12.38-.79-8.44-11.65C124.79,6.27,126.18,7.18,113,5,108,4.2,103.08,3.53,98.2,2.45,96.84,2.15,95.06,2.11,95,0Z"/><path class="cls-1" d="M220.88,195.28c-2.66,12.15-5.41,24.29-7.92,36.48-.61,2.92-2.21,3.1-4.6,3.1-30.66-.07-61.33,0-92-.11-12.63,0-25.32.66-37.8-2.35-12-2.9-22.34-8.69-30.18-18.26-3.06-3.73-4.59-3.11-7.29.19a151.66,151.66,0,0,1-25.27,24.08c-2.7,2.06-3.47,1.76-4.34-1.51-3.34-12.52-7-25-10.46-37.44-.18-.63-.2-1.3-1-1.46,2.84.41,2.85,2.93,3.45,4.86,3,9.88,5.65,19.87,8.48,29.8,1.42,5,2.3,5.25,6.34,1.91,6.81-5.62,13.64-11.24,19.15-18.23a33,33,0,0,1,3.77-4c2.74-2.5,5.41-2.44,7.78.39,13.09,15.64,30.86,20.42,50.08,20.65,35.15.41,70.31.13,105.46.1,5.88,0,6.5-.53,7.77-6.17,1.8-8,3.53-15.94,5.31-23.91,1.48-6.58,1.25-6.91-5.37-6.91-37.32,0-74.64.08-112-.07-8.31,0-16.66-.53-24.68-3.17-12.22-4-19.73-13.52-19.95-26.45-.36-20.82-.14-41.65-.08-62.47a10.36,10.36,0,0,1,.23-2.49c.27-1.09.36-2.43,1.76-2.66a2.49,2.49,0,0,1,2.41,1.5c2.2,3.85,4.67,5.31,8.58,1.89,1.71-1.49,3.06-.46,3.56,1.6a27,27,0,0,1,.4,6.47q0,33.49,0,67c0,6.53.32,6.86,6.7,6.87q62.47,0,125,0c7,0,7.3-.38,7.34-7.36q0-10.24,0-20.49c0-7-.22-7.13-7.43-7.15-10,0-20,.07-30,0-6.5-.07-7.83-1.73-7.54-8.16.18-4,2.07-5.71,5.93-5.75,8.17-.09,16.33-.13,24.49,0,4.07.07,5.8-1.48,5.58-5.58-.19-3.49-.13-7,0-10.49.11-3.66-1.57-5-5.12-5q-11.51.12-23,0c-7.07-.09-10.35-5.73-7.25-12.27,1.25-2.64,3.68-2.59,6-2.64,7.67-.14,15.33,0,23-.07,5.86,0,6.29-.48,6.36-6.21,0-3.67-.06-7.34,0-11,.08-3.39-1.43-4.8-4.79-4.79-7.83,0-15.66.08-23.49,0-6.85-.09-9.73-4.6-7.19-11,1.2-3,3.83-2.89,6.28-2.93,9.5-.13,19,0,28.49-.05,8.69,0,8.69,0,8.7-8.85,0-6.33.06-12.66,0-19-.08-5.42-.69-6.07-6-6.14-8.5-.11-17,0-25.49,0a36.17,36.17,0,0,1-5-.23,4.7,4.7,0,0,1-2.27-.83c11.74,0,23,.23,34.3-.11,4.63-.14,6.36.75,6.09,5.83-.48,9.14-.25,18.33-.07,27.49.05,2.84-.78,3.64-3.61,3.61-12.16-.15-24.34.2-36.49-.19-5.66-.18-3.82,3.41-4.13,6.18-.35,3.19,0,5.1,4.26,4.91,9.49-.4,19,0,28.5-.18,2.74,0,3.76.6,3.65,3.53-.23,6-.29,12,0,18,.18,3.36-1.17,3.74-4,3.7-9.33-.16-18.67.08-28-.14-3.37-.08-5,.65-4.45,4.3a15.23,15.23,0,0,1,0,4c-.3,2.66.81,3.41,3.4,3.38,9.5-.14,19,.17,28.5-.16,3.91-.14,4.73,1.13,4.53,4.73-.3,5.48-.22,11,0,16.49.1,2.65-.75,3.35-3.34,3.31-9.67-.15-19.34.08-29-.14-3.25-.07-4.59.8-4.07,4.1a10,10,0,0,1,0,3c-.47,3.19.64,4.23,4,4.17,12.17-.22,24.34.07,36.5-.19,3.8-.08,4.77,1,4.66,4.72-.28,9.66-.23,19.33,0,29,.07,3.16-1,3.9-4,3.9q-67.24-.13-134.5,0c-3.93,0-3.78-1.87-3.77-4.57q.06-39,0-77.93a3.34,3.34,0,0,0-1.09-.12c-2.7.79-3.09,6.45-6.79,4.08-2.38-1.52-3.51-5-5.28-7.73-1.24,1-.77,2.27-.77,3.31,0,19.66-.09,39.33,0,59,.09,20.23,9.94,30.64,30,32.42,8.83.78,17.65.6,26.48.61q51,.06,102,0C217.09,194.77,219,194.36,220.88,195.28Z"/><path class="cls-1" d="M338.15,294.57c2.35,2.17-1.84,1.95-2.15,3.43.82-3.35-1.49-6.32-1.19-9.62a23.56,23.56,0,0,0,.13-3.46c-.1-1.62,2.56-3.2.12-4.82-2.07-1.36-3.78.23-5.6.78L329,281l-.19,0a3.64,3.64,0,0,1-4.65-2c-1.25,1.88,0,2.53.52,3.41l.17.2c.17.21.33.41.47.62.82,1.12,1.3,2.29.46,3.64a2.64,2.64,0,0,1-.29.42l-.11.14c-4.77,2.58-4.39,6.34-2.4,10.47-5.1-4.5-4.61-7.21,2-11,2-1.92-.8-2.62-1-4a21.26,21.26,0,0,1-2-2.13,2,2,0,0,1,.77-3.29c1.46-.78,3.16-.09,3.15,1.16,0,3.41,2.41.42,3.16,1.45,3.18-3.84,6.37-1.42,9.75.45-2.86,1.32-2.69,4-2.48,6.69C336.49,289.83,335.68,292.28,338.15,294.57Z"/><path class="cls-1" d="M364.35,276.45c-7.4,5.58-6.53,11.6-3.16,18.59L358,298c.74-2.36.41-4.63.14-7.09-.45-4.06-2.05-8.7,2.06-12.13.4-.33,1.35-.67,0-1.1-3.26-1.06-2-4.2-3.11-7.17-1.34,3-.63,6.15-3.12,7.89-.54.38.11.8.47,1.14,3,2.88,1.72,6.6,1.61,9.93-.07,2.53-1.25,5.07.06,7.4-1.23-1.25-2.91-1.55-5-1.24,6.39-3.62,2.78-9.49,3.66-14.3a1,1,0,0,0-1.1-1.29c-5.48-.14-1.08-2.61-.43-2.78,3-.75,1.6-3,1.57-4.43-.07-2.8.89-4.37,3.17-4.79C361.38,270.21,354.51,277.72,364.35,276.45Z"/><path class="cls-1" d="M382.88,294.47,379,298c.32-2.25.89-4.22.23-6.81-1-3.78-1.69-8.2,1.22-11.88.38-.47,1.23-1.05.39-1.51-2.71-1.5-1.44-4.53-2.86-7-1.21,2.58-.36,5.65-2.82,7.37-.66.46-.15,1.11.24,1.68,3,4.42,2.66,9.2.53,13.62-1.45,3,3.38,2.17,2.07,4.51-1.4-1.84-3.16-2.83-5.79-2.06,2.65-2.77,4.47-11.76,3.21-14.63-.3-.7-.72-1.19-1.43-1.07-4.48.74-1.37-2.27-.93-2.38,3.05-.74,2.55-3.05,2.42-5.07-.17-2.56.85-4.07,3.56-4.74,1.1,1.58.47,3.43.56,5.12.12,2.12-.5,4.78,3.2,3.48.68-.24,1.05.07,1,.47a3,3,0,0,1-1.71,2.71C378.23,282,378.55,291.77,382.88,294.47Z"/><path class="cls-1" d="M395,298c-4.43-5.22-3.81-8.07,2.49-10.71C393.26,289.93,393.56,293.81,395,298Z"/><path class="cls-1" d="M397.93,287l.11,0h0l0,0-.11.07A.67.67,0,0,1,397.93,287Z"/><path class="cls-1" d="M400,295.55,397,298c-.29-1.51.93-3-.49-4.62-2.29-2.53-1.26-4.57,1.13-6.15a1.64,1.64,0,0,1,.22-.14A.57.57,0,0,1,398,287l.05,0v.08l-.22.09C395.54,291.37,395.61,291.43,400,295.55Z"/><path class="cls-1" d="M409.14,282.79c-.27-1.13,3.61-1.86,0-3.4-2-.87-3.13-2.84-5.67-.56-1.48,1.32-4.38,4.18-5.78-.8-.31-1.12-2-.84-3,0a1.7,1.7,0,0,0-.19,2.62c1.07,1.24,2.33,2.32,3.51,3.47,0,.95,0,1.9,0,2.85h0l4.43.78c-.33-2.42-4-2.72-3.32-5.62,5.87-1.4,5.9-1.38,5.93,4.51a23,23,0,0,1,0,4c-.45,2.55.09,4.89,2.29,6.1,2.38,1.31,3.41-1.34,5.17-2.24C406.87,291.58,410,286.65,409.14,282.79Zm-2.78,9.36a41.3,41.3,0,0,1-.16-5.45c-.18-6.25-1.16-6.93-7.15-5a2.37,2.37,0,0,0-.36.45,1.52,1.52,0,0,0-.22,1.15,2.77,2.77,0,0,0,.73,1.29c1.53,1.67,0,1.77-.89,2.22,1.38-1,.84-2,0-3.12l-.13-.18a3.25,3.25,0,0,0-.39-.67A7.72,7.72,0,0,1,396.1,279c2.94,4.43,5.52,1.24,8.19.93,2.24-.27,5-1.44,3.95,2.94a14.38,14.38,0,0,0,1.72,11.8C407.26,295.39,406.65,293.88,406.36,292.15Z"/><path class="cls-1" d="M440.13,280.68c-2.71,2-5,3.73-7.95.75a1.59,1.59,0,0,0-2-.43.22.22,0,0,1-.18.08c0,2.79.06,5.59.05,8.38,0,1.5-.09,2.88,1.77,3.6,3.68,1.44,3,3.2.15,4.94-.5-1.21.52-2.63-.59-3.76-3.75-3.86-2.94-8.41-1.94-13a2.87,2.87,0,0,1,.49-.4,2,2,0,0,1,.46-.24c2.07-.76,4.37,2,6.62,0-2.29-2.16-4.5-.57-6.66-.12l-.45.07h-.08a4.69,4.69,0,0,0-2.68,5.26,9.14,9.14,0,0,1-.11,4.39c-1.14,2.8-.54,4.51,2.29,5.63A1.54,1.54,0,0,1,430,298c-1.5-1.81-3.16-3.25-6.51-2.34,3.71-3.27,2.83-7.21,2.33-10.64-.57-3.89.71-5,4.16-4.78C433.2,276.12,436.38,278.47,440.13,280.68Z"/><path class="cls-1" d="M465,285.35l-.61.65c-.17,2.74,1.38,5.09,2.81,6.9,2.18,2.74.95,3.8-1.16,5.1a8.29,8.29,0,0,0-1.07-6.75c-.94-1.47-1.85-3.08-1.49-5a2.13,2.13,0,0,1,.14-.35.8.8,0,0,1,.11-.25,4.73,4.73,0,0,1,.83-1.16l0,0s0,0,0,0l.43-.4c.94-.88,1.77-1.79.56-3.27-1.32-1.63-2.71-1.71-4.13-.91h0c-.21.12-.43.26-.64.41l-.38.3a6.08,6.08,0,0,1-.6.34,5,5,0,0,1-.66.31,4.74,4.74,0,0,1-.73.2c-2.34.51-3.34-.9-3.56-3.27A24.75,24.75,0,0,1,456,267c-2.14.87-3,2.24-2.83,4.72.29,5.95.3,11.93,0,17.88-.12,2.37-1.09,4.74-.15,7-.73-.91-1.7-1.45-3.51-.73,2.68-2,2.54-4.68,2.5-7.4q-.12-8.73,0-17.46c0-1.9-1.32-4.74,2.78-4.39.87.07,1.88-1.59,3.9-3.42-2.54,5.44-2.18,9.92-2.55,14.34-.33,4,1.63,3.08,3.74,2.5.93-1.6,2.52-3.07,4.11-2.2a9.28,9.28,0,0,1,4.2,4.64C468.85,284.21,466,284.22,465,285.35Z"/><path class="cls-1" d="M520.93,280.76c-2.65,2.68-1.54,6.53-1.12,9.78.44,3.43.06,4.76-3.54,4.95a30.41,30.41,0,0,0-3.28.39c-.85.92-2.47.74-3,2.12-.19-2.07,1.48-2.35,2.8-3l.11-.06h.26c4.48-.38,6.41-2.58,5.63-7.39-.37-2.31-.56-4.94,1.16-6.68a21.7,21.7,0,0,0-12.42.17l-.17.07-.05,0-.06,0c-.57.19-1.13.42-1.69.67-2.3,4.07-1.86,11.38.9,14.43A1.57,1.57,0,0,1,507,298c-3.95-1.72-5-4.59-4-8.75a12.14,12.14,0,0,0-.18-6.39c-1.11-3.26,1.41-1.36,2.19-1.87a1.83,1.83,0,0,1,.87-.41C510.89,278.27,516,277.19,520.93,280.76Z"/><path class="cls-1" d="M555.85,295.13c1.32,1.1-2,1.33-1.85,2.87-.42-.93.1-1.53.73-2.09-4.21-3.59-2.74-8.25-2.54-12.75.13-2.81-1.27-3.39-4.38-1.88l-.58.31-.5.27c-1.39,1.31-2.66,2.83-4.86,2.66l-.12,0a1.14,1.14,0,0,1-.26-.09h0c-2-.88-1.75-4.83-3.83-3.95-2.47,1-.27,4.09-.33,6.24-.11,3.76-1.31,7.66.68,11.31-1.59-1.68-1.56-3.16-1.71-6.57s1.74-7.27-1.89-10.12c-1.45-1.14.28-1.54.83-2,1.26-1.07,2.45-2,4.24-.38,1.59,1.46.62,3.93,2.48,5.09l4.21-3.06c2.6-4.32,5.25-1.81,8-.12.72.45.64.5.32,1.28C552.55,286.64,551,291.08,555.85,295.13Z"/><path class="cls-1" d="M584.55,182.32C574.1,208,553.75,221,527.39,226c-10.84,2-10.86,2-14.35-8.49l-7-21c7.58-.85,14.74-1.93,21.69-4.24,19.54-6.51,29.53-20.61,32.19-40.44,1.43-10.68,1-21.3-2.93-31.5-4.63-12-13.21-19.51-25.92-22.53-4.16-1-4.68.36-4.88,3.87A268.11,268.11,0,0,1,517,159.12c-3.7,13.17-8.39,26-16.91,36.92S481,213.57,466.41,211c-11.76-2-18.77-9.95-24.12-19.81-.77-1.42-1.31-3-2-4.45-1.69,5.79-.59,11.72-.62,17.58,0,3.61-1.18,4.4-4.57,4.38-26.33-.13-52.66,0-79-.17-4.2,0-5.45,1-5.15,5.21a38.11,38.11,0,0,1-.9,13.39c-2.28,7.9-7.59,12.61-15.81,12.79-17.15.38-34.31.39-51.47.64-2.4,0-3.49-.62-4-3.17-1.24-6-2.82-12-4.48-17.89-.8-2.88.2-3.38,2.85-3.34,9.33.12,18.66.05,28,0,1.33,0,2.67,0,4,0,3.37-.06,4.1-2.26,4.07-5.06,0-3.27-2.56-2-4-2-26-.08-52-.2-78,.08-4.8.05-6-1.48-5.47-5.79a70.92,70.92,0,0,0,.06-8c0-7.92,0-7.92,7.67-7.92q37.75,0,75.49,0c1.72,0,4.12,1.07,4.27-2.44.12-3.11-.57-4.2-4-4.17-21.16.18-42.33,0-63.49.2-4.09,0-5.08-1.22-4.76-5,.37-4.44-1.44-10.43.82-13,2.64-3,8.76-.91,13.36-.94,18-.12,36,0,54,0,2.13,0,4.13.52,4.13-3.06s-1.85-3.14-4.07-3.11c-19.66.3-39.32.49-59,.93-3.43.07-5.27-.56-5.54-4.36-.19-2.79-1.18-5.52-1.78-8.28-1.33-6.11-1.32-6.11,5.17-6.13,5.16,0,10.33-.17,15.49-.05,2.46.06,3.83-.45,3.38-3.24a9.37,9.37,0,0,1,0-3c.58-3.61-.59-4.87-4.51-4.76-10.82.3-21.66,0-32.49.19-3.42.07-4.71-.7-4.43-4.33a106.52,106.52,0,0,0,0-13.49c-.15-2.85.77-3.63,3.59-3.59,11.33.15,22.67,0,34,.1,2.47,0,3.92-.1,3.91-3.32,0-3.43-2.08-2.7-3.94-2.7-9.16,0-18.33-.12-27.49,0-2.85.05-3.65-.77-3.63-3.62q.19-27.24,0-54.49c0-3.19,1-3.89,4-3.83,9.16.19,18.33,0,27.5.09,2.2,0,3.67,0,3.62-3.06s-1.64-3-3.78-3c-10.33,0-20.67-.12-31,.1-3.34.06-4.77-.54-4.48-4.25a87.91,87.91,0,0,0,0-13.48c-.27-3.52,1.17-4,4.23-4,10.33.16,20.66,0,31,.12,2.94.05,4.48-.57,3.9-3.8-.52-2.94.9-3.61,3.64-3.55q11,.25,22,0c2.83-.07,4.1.76,3.61,3.62-.59,3.4,1.3,3.74,4.06,3.71,10.49-.11,21,.05,31.49-.1,3-.05,4.21.64,4,3.87a118.72,118.72,0,0,0,0,14c.19,3.21-1,3.88-4,3.83-10.5-.17-21-.06-31.5-.07-2.16,0-4.21-.48-4.22,3.07,0,3.72,2.29,2.91,4.3,2.92,9,0,18,.1,27,0,2.7,0,3.74.55,3.72,3.51q-.19,27.49,0,55c0,2.67-.83,3.36-3.42,3.32-9.16-.15-18.33,0-27.49-.07-2.24,0-4.21-.32-4.09,3.18.11,3.23,2,2.84,4,2.83,16.4-.13,32.86.85,50.83-2.73L342.75,96c-1.79-1.56-1.56-2.45.72-3.37a64,64,0,0,0,12.09-6.35c-4.51,0-9-.19-13.52.07-3.15.18-4-1-3.85-4,.22-5.49.29-11,0-16.49-.21-3.67,1.18-4.71,4.55-4.33,1.9.21,3.84,0,6.85,0-5.68-6.38-10.64-11.91-15.53-17.5-.82-.94-2.75-1.87-.33-3.41C342.6,35,344.46,25.91,345,16.35,345.41,8,345.27,8,353.47,8c19.49,0,39,.09,58.49-.09,3.48,0,4.64.82,4.35,4.36a116.94,116.94,0,0,0,0,12c0,2,.59,3.66,3.07,3.69,2.33,0,4.38-.32,4.88-3.12.15-.81.34-1.63.43-2.45.67-6.52.66-6.52,7.15-5.21,10.93,2.18,11,2.19,10,13.36-.5,5.45-.91,10.95-2.81,16.18-2.36,6.52-5.77,9-12.67,9.1-9,.06-18,.19-27,0C389.31,55.51,385,51.89,386,42.26a8.34,8.34,0,0,0,0-1c0-7.72-2.12-9.25-10-7.63-1.8.37-1.91,1.43-2.17,2.77-1.76,9.16-5.54,17.33-12.4,24.13,1.55,1.27,3.09.77,4.45.77,20.49,0,41,.11,61.49,0,3.53,0,5,.55,4.8,4.54-.38,6.64-.27,13.33,0,20,.11,3-1,4.82-3.16,6.74a203.77,203.77,0,0,1-18,13.76c10.33,3,20.24,4.22,30.2,5.15,2,.19,2.35-1.4,3-2.7,21.22-40.41,69.43-51.13,106-36.47,20.44,8.19,32.59,24.18,38.37,45C594.7,139.34,593.16,161.14,584.55,182.32Z"/><path class="cls-1" d="M601.64,277c-2,3-6.5,4-5,8.53,1,3.05-1.82,7.35,3.27,9.08L596,298a16.41,16.41,0,0,0,.27-6.51c-.84-4-1.88-8.57,1.38-12.34.45-.52,1-1,.11-1.51-2.53-1.44-1.54-4.18-2.62-7-1.42,2.63-.53,5.71-2.83,7.36-.7.5-.27.95.22,1.56,3,3.82,2,8.26,1.12,12.34-.41,2-1.32,3.18,1,4.27A1.37,1.37,0,0,1,595,298c-1.24-2.18-3.22-2.78-6.14-2.08,3.38-2.85,5.27-11.18,4-14.77-.81-2.25-2.5-.29-4.41-1.34,7.28-1.22,1.49-9.94,7.64-11.76C599.06,270.52,593,277.49,601.64,277Z"/><path class="cls-1" d="M611.35,270.43c3.2-3,3.2-3,7.94-1.06C617.13,273.19,614.32,273,611.35,270.43Z"/><path class="cls-1" d="M620.84,294.33,617,298c0-1.84,1-3.36-.41-5.58-1.8-2.93-1.08-6.77-.2-10.22.24-.95.76-1.95-.42-2.62a1.89,1.89,0,0,0-1.91,0c-1.24.75-.36,1.73-.23,2.65.76,5.23.13,10.56,1.17,15.77-3.28-3.88-1.48-8.52-1.9-12.83-.2-2,.63-4.54-2.88-4.35,2.61-4.95,6.13-2.61,9.35-1.34C615.5,284.22,616,292.56,620.84,294.33Z"/><path class="cls-1" d="M643,277.24c-5.59,9.62-6,14.65-1.22,17.11-.62,1.87-2.85,2.1-3.76,3.65.35-2.16.85-4.1.24-6.52-1-3.75-1.33-7.88.69-11.62.44-.82.82-1.5-.13-2.06-2.63-1.55-1.55-4.43-2.76-7.76a50.9,50.9,0,0,0,1,28c-1.14-1.73-3.27-2-4.76-3.09,3.47-4.28,1.34-9.19,1.82-13.75.24-2.33-4.8-.81-2.66-2,4.89-2.59.24-9.67,6.2-10.91C640.7,270.54,634.29,278.37,643,277.24Z"/><path class="cls-1" d="M672.47,294.21c-.39,2-3,2-3.47,3.79.37-1.91,1.21-3.45-.47-5.67s-.84-5.75-.5-8.71c.14-1.28,1.57-2.47-.55-3.75-1.8-1.09-2.74-.15-4,.56a16.88,16.88,0,0,1-1.73.92c-.15.06-.31.13-.47.18h0l-.19.06a4.57,4.57,0,0,1-.72.14,3.93,3.93,0,0,1-2.8-.8c-.29-.21-.93-1.32-1.21,0-.09.44.34.9.59,1.34l0,.09.51.87c.66,1.19,1.14,2.4.28,3.73a3.15,3.15,0,0,1-.33.44C652.35,290,653.65,294,655,298c-4.92-4.93-4.55-7,2-11,2-1.91-.77-2.68-1-4.07-1.3-1.34-3.58-2.87-1.39-4.67,2-1.65,3.48-.31,3.88,2.23.05.3,1.48.38,2.39.54l0-.1.18.08c3.28-2.68,3.32-2.67,10.3-.62C667.58,284.35,668.15,292.21,672.47,294.21Z"/><path class="cls-1" d="M704.79,281.38c-2.92,4.36-2.94,8.67.12,13,.9,1.26.93,1.25-1.91,3.66.26-5.35-2.68-10.59-.41-16,.59-1.41-.92-1.45-1.79-1.66a3.37,3.37,0,0,0-2.93.73,5.86,5.86,0,0,0-.5.37l-.55.48a9.46,9.46,0,0,1-5,2.45h-.08c-2.3-.46-1.56-4.11-4.75-4.16.86,4.79,2.19,9.49.26,14.26-.52,1.27,2.61,1.6,1.74,3.55-.78-2.15-2.65-2.13-4.51-2.17,3.68-4.11,3.4-11.89-.5-15.35,4.92-4,5.38-3.78,7.88,3.78l4.25-3.5c2.69-4.18,5.75-1.2,8.7-.46C706.28,280.67,704.94,281.15,704.79,281.38Z"/><path class="cls-1" d="M797.62,197.1c-.42,10-.34,20,0,30,.13,4.12-.89,5.22-5.13,5.21-51.65-.16-103.31-.06-155-.2-4.58,0-7.5.44-6.34,6,.55,2.61-1,2.9-3.2,2.88-10.5-.08-21-.19-31.49.06-3.41.08-3.68-1.3-3.66-4.07.09-21.83,0-43.65,0-65.48v-47c0-37.16.07-74.32-.09-111.48,0-3.93,1-4.92,4.92-4.91q96,.2,192,0c3.7,0,4.84.82,4.73,4.65-.3,9.82-.32,19.66,0,29.48.14,4.25-.77,5.59-5.37,5.57-50.66-.19-101.32,0-152-.24-4.84,0-6.5,1.14-5.93,6,.5,4.26-1.33,10.05.85,12.51,2.56,2.87,8.44.9,12.87.91q64.24.11,128.48-.06c3.92,0,4.86,1,4.84,4.87q-.24,47,0,94c0,4.09-1.27,4.78-5,4.77-45.49-.12-91,0-136.47-.2-4.76,0-6,1.41-5.6,5.83a53.12,53.12,0,0,1,0,11c-.46,4.19,1.32,4.82,5,4.81,52-.11,104,0,156-.17C796.34,191.76,797.81,192.51,797.62,197.1Z"/><path class="cls-1" d="M1022.23,202.69c-7.15,12-14.26,24-21.08,36.18-2.07,3.68-3.56,1.35-5.3.21C957.69,213.94,932.48,179,918,136c-.52-1.57-1.12-3.12-1.73-4.65-.11-.27-.47-.44-.91-.82-12.83,45.56-40.38,80.24-78.5,107.15-5.57,3.94-5.57,3.93-9.13-1.94-6.19-10.24-12.27-20.55-18.65-30.67-1.9-3-1.92-4.31,1.57-6.17,20.83-11.11,38.66-25.82,52.72-45,15.34-20.87,22.77-44.78,27.71-69.78,4.9-24.75,3.84-49.75,3.69-74.7,0-5.27,1.39-6.6,6.51-6.39,10.14.43,20.32.29,30.48,0,3.8-.09,5.1.77,5,4.87-.18,15.32-.59,30.69.32,46,1.67,28.24,7.24,55.71,19.88,81.31,11.37,23,29.45,40,50.26,54.4,4.51,3.11,9.17,6,13.88,8.83C1023.16,199.67,1023.51,200.56,1022.23,202.69Z"/><path class="cls-2" d="M220.88,195.28c-2.66,12.15-5.41,24.29-7.92,36.48-.61,2.92-2.21,3.1-4.6,3.1-30.66-.07-61.33,0-92-.11-12.63,0-25.32.66-37.8-2.35-12-2.9-22.34-8.69-30.18-18.26-3.06-3.73-4.59-3.11-7.29.19a151.66,151.66,0,0,1-25.27,24.08c-2.7,2.06-3.47,1.76-4.34-1.51-3.34-12.52-7-25-10.46-37.44-.18-.63-.2-1.3-1-1.46v-2a8.47,8.47,0,0,1,4.06-3.55c1.35-.66,2.61-1.5,3.94-2.16C16.52,186,20.92,180,19.84,169.66c-1.06-10.21-.32-20.63-.18-30.95.05-3.8-1.27-5.69-5.21-5.32-.33,0-.67,0-1,0-12.44.09-11.86.19-11.84-12.24,0-7.66-.09-15.33,0-23,.1-5.42,1.08-6.44,6.5-6.5,12.33-.14,24.65,0,37,0a21.38,21.38,0,0,0,5-.28c-1.94-3.06-3.64-5.85-5.46-8.53C42.11,79,42.44,76,45.78,72.69A176.63,176.63,0,0,0,76,32.5,173.41,173.41,0,0,0,87.67,6C88.46,3.83,89,1.54,91,0h4c8.79,2.54,17.89,3.41,26.87,5,3.51.6,5.08,1.27,3.27,5.21-2.21,4.82-3.72,10-5.73,14.86-1.09,2.68-.53,3.56,2.39,3.44,15-.63,11,3.21,17.5-11.33,1.35-3,2.92-6.1,3.48-9.31,1-5.75,4-6.76,9.28-5.75,8.82,1.67,17.75,2.79,26.67,3.89,3,.37,3.17,1.26,1.91,3.68-3.09,5.91-6,11.91-9.26,18.47l-.16.32h.47c11.74,0,23,.23,34.3-.11,4.63-.14,6.36.75,6.09,5.83-.48,9.14-.25,18.33-.07,27.49.05,2.84-.78,3.64-3.61,3.61-12.16-.15-24.34.2-36.49-.19-5.66-.18-3.82,3.41-4.13,6.18-.35,3.19,0,5.1,4.26,4.91,9.49-.4,19,0,28.5-.18,2.74,0,3.76.6,3.65,3.53-.23,6-.29,12,0,18,.18,3.36-1.17,3.74-4,3.7-9.33-.16-18.67.08-28-.14-3.37-.08-5,.65-4.45,4.3a15.23,15.23,0,0,1,0,4c-.3,2.66.81,3.41,3.4,3.38,9.5-.14,19,.17,28.5-.16,3.91-.14,4.73,1.13,4.53,4.73-.3,5.48-.22,11,0,16.49.1,2.65-.75,3.35-3.34,3.31-9.67-.15-19.34.08-29-.14-3.25-.07-4.59.8-4.07,4.1a10,10,0,0,1,0,3c-.47,3.19.64,4.23,4,4.17,12.17-.22,24.34.07,36.5-.19,3.8-.08,4.77,1,4.66,4.72-.28,9.66-.23,19.33,0,29,.07,3.16-1,3.9-4,3.9q-67.24-.13-134.5,0c-3.93,0-3.78-1.87-3.77-4.57q.06-39,0-77.93a3.34,3.34,0,0,0-1.09-.12c-2.7.79-3.09,6.45-6.79,4.08-2.38-1.52-3.51-5-5.28-7.73-1.24,1-.77,2.27-.77,3.31,0,19.66-.09,39.33,0,59,.09,20.23,9.94,30.64,30,32.42,8.83.78,17.65.6,26.48.61q51,.06,102,0C217.09,194.77,219,194.36,220.88,195.28Z"/><path class="cls-1" d="M4.25,30.79c6.84-9.41,13.62-18.87,20.43-28.3A20.4,20.4,0,0,1,26.39.65c1,.67,1.79,1.2,2.58,1.79,12.55,9.42,23.77,20.31,34.76,31.45,1.74,1.77,1.34,2.92.11,4.63Q53.34,53.08,43,67.78c-1.35,1.94-2,2.49-3.83.33C28.81,55.71,17.78,43.94,4.67,34.33,3,33.09,3.2,32.23,4.25,30.79Z"/><path class="cls-1" d="M51.91,91.38a7.59,7.59,0,0,1,.42,1c-.9,1.47-2.37.73-3.53.73-14,.06-28,.13-42,0-3.19,0-4.29.71-4.21,4.09.23,10.49.15,21,0,31.47,0,2.5.52,3.83,3.26,3.37a4.18,4.18,0,0,1,1,0c4.58.35,10.7-2,13.32,1,2.25,2.6.67,8.55.69,13,0,10.83-.07,21.65.07,32.48,0,2.71-.63,4.6-2.88,6.31C12.41,189.09,6.63,193.21,0,196a8.47,8.47,0,0,1,4.06-3.55c1.35-.66,2.61-1.5,3.94-2.16C16.52,186,20.92,180,19.84,169.66c-1.06-10.21-.32-20.63-.18-30.95.05-3.8-1.27-5.69-5.21-5.32-.33,0-.67,0-1,0-12.44.09-11.86.19-11.84-12.24,0-7.66-.09-15.33,0-23,.1-5.42,1.08-6.44,6.5-6.5,12.33-.14,24.65,0,37,0a21.38,21.38,0,0,0,5-.28c-1.94-3.06-3.64-5.85-5.46-8.53C42.11,79,42.44,76,45.78,72.69A176.63,176.63,0,0,0,76,32.5,173.41,173.41,0,0,0,87.67,6C88.46,3.83,89,1.54,91,0,82.41,28.39,67.72,53.13,46.35,73.75c-2.78,2.68-3.54,4.45-1,7.63S49.76,88,51.91,91.38Z"/><path class="cls-3" d="M641.76,294.35c-.62,1.87-2.85,2.1-3.76,3.65h-1c-1.14-1.73-3.27-2-4.76-3.09,3.47-4.28,1.34-9.19,1.82-13.75.24-2.33-4.8-.81-2.66-2,4.89-2.59.24-9.67,6.2-10.91,3.1,2.24-3.31,10.07,5.38,8.94C637.39,286.86,637,291.89,641.76,294.35Z"/><path class="cls-4" d="M382.88,294.47,379,298h-1c-1.4-1.84-3.16-2.83-5.79-2.06,2.65-2.77,4.47-11.76,3.21-14.63-.3-.7-.72-1.19-1.43-1.07-4.48.74-1.37-2.27-.93-2.38,3.05-.74,2.55-3.05,2.42-5.07-.17-2.56.85-4.07,3.56-4.74,1.1,1.58.47,3.43.56,5.12.12,2.12-.5,4.78,3.2,3.48.68-.24,1.05.07,1,.47a3,3,0,0,1-1.71,2.71C378.23,282,378.55,291.77,382.88,294.47Z"/><path class="cls-5" d="M361.19,295,358,298h-1a5.74,5.74,0,0,0-.83-1.11l0,0c-1.23-1.25-2.91-1.55-5-1.24,6.39-3.62,2.78-9.49,3.66-14.3a1,1,0,0,0-1.1-1.29c-5.48-.14-1.08-2.61-.43-2.78,3-.75,1.6-3,1.57-4.43-.07-2.8.89-4.37,3.17-4.79,3.39,2.17-3.48,9.68,6.36,8.41C357,282,357.82,288.05,361.19,295Z"/><path class="cls-6" d="M596.66,285.57c1,3.05-1.82,7.35,3.27,9.08L596,298h-1c-1.24-2.18-3.22-2.78-6.14-2.08,3.38-2.85,5.27-11.18,4-14.77-.81-2.25-2.5-.29-4.41-1.34,7.28-1.22,1.49-9.94,7.64-11.76,3,2.47-3.08,9.44,5.57,9C599.64,280,595.14,281.06,596.66,285.57Z"/><path class="cls-7" d="M460.06,279.93s0,0,0,0,0,0,0,.06a5.47,5.47,0,0,1-.26.9c-1,2.68-3.37,5-2.39,8.18a3.75,3.75,0,0,0,.19.53c0,.65-.18,1.53.26,1.9,4.14,3.55,1,5-1.84,6.46h-2a14.17,14.17,0,0,0-.93-1.47c-.73-.91-1.7-1.45-3.51-.73,2.68-2,2.54-4.68,2.5-7.4q-.12-8.73,0-17.46c0-1.9-1.32-4.74,2.78-4.39.87.07,1.88-1.59,3.9-3.42-2.54,5.44-2.18,9.92-2.55,14.34-.33,4,1.63,3.08,3.74,2.5Z"/><path class="cls-8" d="M690,298c.23-1.94.85-3.68.21-5.88-.74-2.53-1.55-5.74,1.54-7.77a.94.94,0,0,1,.12-.09l4.25-3.5a5.14,5.14,0,0,1,1.75.28c1.7.6,2.39,2.18,2.4,4.19,0,4.28.61,8.51.73,12.77Z"/><path class="cls-9" d="M551,298H541c-.19-1.58.43-3-.42-4.82-1.27-2.78-2-6.21.9-8.78h0A4.31,4.31,0,0,1,542,284l4.21-3.06a4.48,4.48,0,0,1,1.65.33c1.75.71,2.32,2.49,2.37,4.4C550.28,289.8,550.89,293.88,551,298Z"/><path class="cls-10" d="M543.93,294.91,541,298h-3c-1.59-1.68-1.56-3.16-1.71-6.57s1.74-7.27-1.89-10.12c-1.45-1.14.28-1.54.83-2,1.26-1.07,2.45-2,4.24-.38,1.59,1.46.62,3.93,2.48,5.09-.07.16-.14.32-.2.48C539.54,289.7,540.27,293.2,543.93,294.91Z"/><path class="cls-6" d="M672.47,294.21c-.39,2-3,2-3.47,3.79h-2a10.18,10.18,0,0,0-5.67-2.56l-.13-.1a.19.19,0,0,1-.07-.06,1.09,1.09,0,0,1-.27-.33.11.11,0,0,1,0-.08,1.15,1.15,0,0,1-.12-.53c4.09-6,4.2-8,.67-12.65l-.08-.16c-.07-.15-.15-.3-.22-.46l.06-.05c3.28-2.68,3.32-2.67,10.3-.62C667.58,284.35,668.15,292.21,672.47,294.21Z"/><path class="cls-6" d="M620.84,294.33,617,298h-2c-3.28-3.88-1.48-8.52-1.9-12.83-.2-2,.63-4.54-2.88-4.35,2.61-4.95,6.13-2.61,9.35-1.34C615.5,284.22,616,292.56,620.84,294.33Z"/><path class="cls-11" d="M336,298h-1a2.11,2.11,0,0,1-.31-.21c-1.78-1.15-3.85-1.94-4.94-4a.43.43,0,0,1,0-.07l0-.06c.77-4.11,2.48-8.28-.66-12.17l0,0a2.29,2.29,0,0,1-.1-.23,1.66,1.66,0,0,1-.06-.21,1.38,1.38,0,0,1,.19-.85c3.18-3.84,6.37-1.42,9.75.45-2.86,1.32-2.69,4-2.48,6.69.2,2.47-.61,4.92,1.86,7.21S336.31,296.52,336,298Z"/><path class="cls-6" d="M694.13,294.58,690,298h-1c-.78-2.15-2.65-2.13-4.51-2.17,3.68-4.11,3.4-11.89-.5-15.35,4.92-4,5.38-3.78,7.88,3.78,0,0,0,.05,0,.08C689.57,289.21,690.21,292.69,694.13,294.58Z"/><path class="cls-12" d="M554,298h-3c-3.42-3.27-1.8-7.5-2-11.32-.1-2.08-.24-3.91-1.79-5.09a4.27,4.27,0,0,0-1.07-.64c2.6-4.32,5.25-1.81,8-.12.72.45.64.5.32,1.28-1.89,4.53-3.46,9,1.41,13C557.17,296.23,553.82,296.46,554,298Z"/><path class="cls-11" d="M704.91,294.34c.9,1.26.93,1.25-1.91,3.66h-2c-3.2-3.44-1.89-7.71-2-11.66-.07-2-.12-3.79-1.6-4.93a4.57,4.57,0,0,0-1.25-.65c2.69-4.18,5.75-1.2,8.7-.46,1.46.37.12.85,0,1.08C701.87,285.74,701.85,290.05,704.91,294.34Z"/><path class="cls-13" d="M432,298h-2c-1.5-1.81-3.16-3.25-6.51-2.34,3.71-3.27,2.83-7.21,2.33-10.64-.57-3.89.71-5,4.16-4.78a.73.73,0,0,1,.4.28.14.14,0,0,1,0,.1.21.21,0,0,1,0,.15.76.76,0,0,1-.18.23.22.22,0,0,1-.18.08c0,2.79.06,5.59.05,8.38,0,1.5-.09,2.88,1.77,3.6C435.53,294.5,434.83,296.26,432,298Z"/><path class="cls-14" d="M513,295.88c-.85.92-2.47.74-3,2.12h-3c-3.95-1.72-5-4.59-4-8.75a12.14,12.14,0,0,0-.18-6.39c-1.11-3.26,1.41-1.36,2.19-1.87a1.83,1.83,0,0,1,.87-.41,2.33,2.33,0,0,1,1.31.25,2.43,2.43,0,0,1,.2.25l0,0,.06.07a5.93,5.93,0,0,1,.8,4.3c-.41,4.08,1.26,7,4.67,9l.11.16a1,1,0,0,1,.14.31h0A1.12,1.12,0,0,1,513,295.88Z"/><path class="cls-15" d="M466,298h-1c-3.68-1.79-3.75-5.95-5.82-8.8,0-.22,0-.44.07-.64.38-3.3,1.76-4.2,4.44-2.91.21.1.43.22.66.35-.17,2.74,1.38,5.09,2.81,6.9C469.34,295.64,468.11,296.7,466,298Z"/><path class="cls-16" d="M460.12,289,465,298h-9c.35-1.86,2.48-1.92,3.44-3.55-1.66-1-4.92-1.29-2.76-4.57C457.6,288.73,458.62,288,460.12,289Z"/><path class="cls-10" d="M326,298h-3c-5.1-4.5-4.61-7.21,2-11a1,1,0,0,1,.8,0,.88.88,0,0,1,.39.5,2.93,2.93,0,0,1,.12.49v0c-1.24,2.66-.85,4.8,1.82,6.2l.13.07.14.07C330.32,297.31,326.8,296.77,326,298Z"/><path class="cls-6" d="M661.2,295.34c.06,2.2-2.15,1.77-3.2,2.66h-3c-4.92-4.93-4.55-7,2-11a1,1,0,0,1,.78,0,.84.84,0,0,1,.44.64,2.36,2.36,0,0,1,.08.4v0c-1.81,3.28-.13,5.23,2.52,6.8l.12.07.24.29A.41.41,0,0,0,661.2,295.34Z"/><path class="cls-17" d="M398,287.06l-.22.09,0-.06v0a.67.67,0,0,1,.06-.12Z"/><path class="cls-17" d="M400,295.55,397,298h-2c-4.43-5.22-3.81-8.07,2.49-10.71a.47.47,0,0,1,.15-.06l.18-.08C395.54,291.37,395.61,291.43,400,295.55Z"/><path class="cls-18" d="M326,298c-.48-1.77,3.06-1,2-3.18,0-.86.42-1.16,1.24-.8,3.87-1.5,3.71,2.86,5.78,4Z"/><path class="cls-19" d="M658,298l3.19-2.77c3.38-2.1,5-.56,5.81,2.77Z"/><path class="cls-2" d="M588.59,117.28c-5.78-20.84-17.93-36.83-38.37-45-36.58-14.66-84.79-3.94-106,36.47-.69,1.3-1,2.89-3,2.7-10-.93-19.87-2.13-30.2-5.15a203.77,203.77,0,0,0,18-13.76c2.16-1.92,3.27-3.75,3.16-6.74-.24-6.66-.35-13.35,0-20,.22-4-1.27-4.57-4.8-4.54-20.5.16-41,.09-61.49,0-1.36,0-2.9.5-4.45-.77,6.86-6.8,10.64-15,12.4-24.13.26-1.34.37-2.4,2.17-2.77,7.86-1.62,10-.09,10,7.63a8.34,8.34,0,0,1,0,1c-1,9.63,3.33,13.25,13.39,13.51,9,.23,18,.1,27,0,6.9-.05,10.31-2.58,12.67-9.1,1.9-5.23,2.31-10.73,2.81-16.18,1-11.17.91-11.18-10-13.36-6.49-1.31-6.48-1.31-7.15,5.21-.09.82-.28,1.64-.43,2.45-.5,2.8-2.55,3.16-4.88,3.12-2.48,0-3-1.71-3.07-3.69a116.94,116.94,0,0,1,0-12c.29-3.54-.87-4.39-4.35-4.36-19.5.18-39,.09-58.49.09-8.2,0-8.06,0-8.51,8.35-.5,9.56-2.36,18.62-11.25,24.3-2.42,1.54-.49,2.47.33,3.41,4.89,5.59,9.85,11.12,15.53,17.5-3,0-4.95.17-6.85,0-3.37-.38-4.76.66-4.55,4.33.31,5.48.24,11,0,16.49-.13,3,.7,4.16,3.85,4,4.49-.26,9-.07,13.52-.07a64,64,0,0,1-12.09,6.35c-2.28.92-2.51,1.81-.72,3.37l8.14,7.12c-18,3.58-34.43,2.6-50.83,2.73-2,0-3.86.4-4-2.83-.12-3.5,1.85-3.19,4.09-3.18,9.16,0,18.33-.08,27.49.07,2.59,0,3.43-.65,3.42-3.32q-.16-27.5,0-55c0-3-1-3.55-3.72-3.51-9,.15-18,.08-27,0-2,0-4.31.8-4.3-2.92,0-3.55,2.06-3.07,4.22-3.07,10.5,0,21-.1,31.5.07,3,.05,4.16-.62,4-3.83a118.72,118.72,0,0,1,0-14c.18-3.23-1.06-3.92-4-3.87-10.5.15-21,0-31.49.1-2.76,0-4.65-.31-4.06-3.71.49-2.86-.78-3.69-3.61-3.62q-11,.27-22,0c-2.74-.06-4.16.61-3.64,3.55.58,3.23-1,3.85-3.9,3.8-10.33-.16-20.66,0-31-.12-3.06-.05-4.5.46-4.23,4a87.91,87.91,0,0,1,0,13.48c-.29,3.71,1.14,4.31,4.48,4.25,10.32-.22,20.66-.06,31-.1,2.14,0,3.72-.14,3.78,3s-1.42,3.08-3.62,3.06c-9.17,0-18.34.1-27.5-.09-3-.06-4,.64-4,3.83q.24,27.24,0,54.49c0,2.85.78,3.67,3.63,3.62,9.16-.17,18.33-.08,27.49,0,1.86,0,3.93-.73,3.94,2.7,0,3.22-1.44,3.35-3.91,3.32-11.33-.09-22.67.05-34-.1-2.82,0-3.74.74-3.59,3.59a106.52,106.52,0,0,1,0,13.49c-.28,3.63,1,4.4,4.43,4.33,10.83-.23,21.67.11,32.49-.19,3.92-.11,5.09,1.15,4.51,4.76a9.37,9.37,0,0,0,0,3c.45,2.79-.92,3.3-3.38,3.24-5.16-.12-10.33,0-15.49.05-6.49,0-6.5,0-5.17,6.13.6,2.76,1.59,5.49,1.78,8.28.27,3.8,2.11,4.43,5.54,4.36,19.65-.44,39.31-.63,59-.93,2.22,0,4.06-.38,4.07,3.11s-2,3.06-4.13,3.06c-18,0-36-.08-54,0-4.6,0-10.72-2.07-13.36.94-2.26,2.59-.45,8.58-.82,13-.32,3.76.67,5,4.76,5,21.16-.24,42.33,0,63.49-.2,3.42,0,4.11,1.06,4,4.17-.15,3.51-2.55,2.44-4.27,2.44q-37.74.09-75.49,0c-7.67,0-7.67,0-7.67,7.92a70.92,70.92,0,0,1-.06,8c-.5,4.31.67,5.84,5.47,5.79,26-.28,52-.16,78-.08,1.47,0,4-1.3,4,2,0,2.8-.7,5-4.07,5.06-1.33,0-2.67,0-4,0-9.33,0-18.66.08-28,0-2.65,0-3.65.46-2.85,3.34,1.66,5.92,3.24,11.88,4.48,17.89.53,2.55,1.62,3.21,4,3.17,17.16-.25,34.32-.26,51.47-.64,8.22-.18,13.53-4.89,15.81-12.79a38.11,38.11,0,0,0,.9-13.39c-.3-4.17.95-5.25,5.15-5.21,26.33.21,52.66,0,79,.17,3.39,0,4.55-.77,4.57-4.38,0-5.86-1.07-11.79.62-17.58.65,1.49,1.19,3,2,4.45,5.35,9.86,12.36,17.77,24.12,19.81C481,213.57,491.54,207,500,196s13.21-23.75,16.91-36.92a268.11,268.11,0,0,0,9.24-57.54c.2-3.51.72-4.86,4.88-3.87,12.71,3,21.29,10.48,25.92,22.53,3.91,10.2,4.36,20.82,2.93,31.5-2.66,19.83-12.65,33.93-32.19,40.44-7,2.31-14.11,3.39-21.69,4.24l7,21c3.49,10.46,3.51,10.52,14.35,8.49C553.75,221,574.1,208,584.55,182.32,593.16,161.14,594.7,139.34,588.59,117.28Zm-156,68.22c-24.49,0-49,0-73.49-.06-2,0-5.6,1.06-5.53-2.15.06-2.57,3.49-1.73,5.48-1.74,17.5-.08,35,0,52.49-.06,14.35-.05,14.31,1.76,13.95-15.28-.09-4-2.14-5.68-6-5.68-2.17,0-4.33,0-6.5,0-18.33,0-36.66,0-55-.06-1.84,0-4.64.58-4.8-2.22-.2-3.36,2.87-2.55,4.82-2.67,13.45-.85,26.89-1.93,40.38-2.16,3.65-.06,7.28-.76,10.93-1.07,3.91-.33,4.57-1.58,3.21-5.31-1.19-3.26-3.17-6.19-4.42-9.54,2-.5,3.48.54,5,1,4.78,1.46,9.43,3.34,14.28,4.56,2.72.68,5.46,1.05,6.78-2.72-.41,2.4-1.48,4.34-1.57,6.56a103,103,0,0,0,4.16,34.56c.55,1.79,1.16,3.58,2.7,4.72A21.73,21.73,0,0,0,432.54,185.5Z"/><path class="cls-2" d="M797.62,197.1c-.42,10-.34,20,0,30,.13,4.12-.89,5.22-5.13,5.21-51.65-.16-103.31-.06-155-.2-4.58,0-7.5.44-6.34,6,.55,2.61-1,2.9-3.2,2.88-10.5-.08-21-.19-31.49.06-3.41.08-3.68-1.3-3.66-4.07.09-21.83,0-43.65,0-65.48v-47c0-37.16.07-74.32-.09-111.48,0-3.93,1-4.92,4.92-4.91q96,.2,192,0c3.7,0,4.84.82,4.73,4.65-.3,9.82-.32,19.66,0,29.48.14,4.25-.77,5.59-5.37,5.57-50.66-.19-101.32,0-152-.24-4.84,0-6.5,1.14-5.93,6,.5,4.26-1.33,10.05.85,12.51,2.56,2.87,8.44.9,12.87.91q64.24.11,128.48-.06c3.92,0,4.86,1,4.84,4.87q-.24,47,0,94c0,4.09-1.27,4.78-5,4.77-45.49-.12-91,0-136.47-.2-4.76,0-6,1.41-5.6,5.83a53.12,53.12,0,0,1,0,11c-.46,4.19,1.32,4.82,5,4.81,52-.11,104,0,156-.17C796.34,191.76,797.81,192.51,797.62,197.1Z"/><path class="cls-2" d="M1022.23,202.69c-7.15,12-14.26,24-21.08,36.18-2.07,3.68-3.56,1.35-5.3.21C957.69,213.94,932.48,179,918,136c-.52-1.57-1.12-3.12-1.73-4.65-.11-.27-.47-.44-.91-.82-12.83,45.56-40.38,80.24-78.5,107.15-5.57,3.94-5.57,3.93-9.13-1.94-6.19-10.24-12.27-20.55-18.65-30.67-1.9-3-1.92-4.31,1.57-6.17,20.83-11.11,38.66-25.82,52.72-45,15.34-20.87,22.77-44.78,27.71-69.78,4.9-24.75,3.84-49.75,3.69-74.7,0-5.27,1.39-6.6,6.51-6.39,10.14.43,20.32.29,30.48,0,3.8-.09,5.1.77,5,4.87-.18,15.32-.59,30.69.32,46,1.67,28.24,7.24,55.71,19.88,81.31,11.37,23,29.45,40,50.26,54.4,4.51,3.11,9.17,6,13.88,8.83C1023.16,199.67,1023.51,200.56,1022.23,202.69Z"/><path class="cls-6" d="M412.51,294.48c-1.76.9-2.79,3.55-5.17,2.24-2.2-1.21-2.74-3.55-2.29-6.1a23,23,0,0,0,0-4c0-5.89-.06-5.91-5.93-4.51-.54.2-.6.7-.69,1.16a1.76,1.76,0,0,1-.12.39.79.79,0,0,1-.35.44c-1.18-1.15-2.44-2.23-3.51-3.47a1.7,1.7,0,0,1,.19-2.62c1-.84,2.73-1.12,3,0,1.4,5,4.3,2.12,5.78.8,2.54-2.28,3.64-.31,5.67.56,3.58,1.54-.3,2.27,0,3.4C410,286.65,406.87,291.58,412.51,294.48Z"/><path class="cls-20" d="M519.81,290.54c.44,3.43.06,4.76-3.54,4.95a30.41,30.41,0,0,0-3.28.39c0-.27,0-.54,0-.81V295c0-.11,0-.21,0-.32a13.31,13.31,0,0,1,.2-1.51c1.37-7.85,1-8.62-5.78-11.95l-.11-.05-.06,0L505,281l.87-.41c5.05-2.31,10.13-3.39,15.09.18C518.28,283.44,519.39,287.29,519.81,290.54Z"/><path class="cls-21" d="M460.06,279.93,460,280h-.09Z"/><path class="cls-21" d="M465,284.06c0,.41,0,.84,0,1.29l-.61.65a5.61,5.61,0,0,0-.77-.1c-2.24-.21-3.34.77-3.46,3.05l-.94.25-1.6.44-.9.24a7.75,7.75,0,0,1,1.71-8.44A13.63,13.63,0,0,1,460,280l0,0h.05a6.46,6.46,0,0,1,1.35-.09h0C464,279.93,464.89,281.63,465,284.06Z"/><path class="cls-15" d="M465,285.35c-.14-.29-.27-.59-.41-.88,0,0,0,0,0,0a7.79,7.79,0,0,0-3.79-4.17A4.41,4.41,0,0,0,460,280l-.08,0,0,0,0,0c.93-1.6,2.52-3.07,4.11-2.2a9.28,9.28,0,0,1,4.2,4.64C468.85,284.21,466,284.22,465,285.35Z"/><path class="cls-22" d="M440.13,280.68c-2.71,2-5,3.73-7.95.75a1.59,1.59,0,0,0-2-.43l-.18.08a.94.94,0,0,1-.07-.22,1.24,1.24,0,0,1,0-.27,1.48,1.48,0,0,1,.05-.35C433.2,276.12,436.38,278.47,440.13,280.68Z"/><path class="cls-23" d="M329,281v0a2,2,0,0,1,0,.49c-.09,1.06-1,1.23-1.84,1.48l-.46.16-.46.08a5.7,5.7,0,0,1-.92.07A3.37,3.37,0,0,1,324,283a21.26,21.26,0,0,1-2-2.13,2,2,0,0,1,.77-3.29c1.46-.78,3.16-.09,3.15,1.16,0,3.41,2.41.42,3.16,1.45A1.71,1.71,0,0,1,329,281Z"/><path class="cls-24" d="M619.29,269.37c-2.16,3.82-5,3.67-7.94,1.06C614.55,267.47,614.55,267.47,619.29,269.37Z"/><path class="cls-6" d="M661.08,281.07H661a.27.27,0,0,0,0-.12Z"/><path class="cls-6" d="M661.09,281.6c0,.78-.83,1-1.48,1.33l-.05,0a8.61,8.61,0,0,1-1.09.26,4.43,4.43,0,0,1-1,.06,3.68,3.68,0,0,1-1.46-.33c-1.3-1.34-3.58-2.87-1.39-4.67,2-1.65,3.48-.31,3.88,2.23.05.3,1.48.38,2.39.54l.06,0A1.3,1.3,0,0,1,661.09,281.6Z"/><path class="cls-25" d="M662.16,288.37c-1.15,1.53-2.55.4-3.85-.33l-.45-.23-.4-.37L657,287c2-1.91-.77-2.68-1-4.07a2.84,2.84,0,0,0,1-.54c.58-.42,1.16-.85,2-.38.18.31.38.62.59.91.36.52.75,1,1.09,1.55C661.49,285.69,663.19,287,662.16,288.37Z"/><path class="cls-26" d="M330.1,288.45c-1.08,1.39-2.54.35-3.79-.49l-.42-.27-.38-.3L325,287c2-1.92-.8-2.62-1-4l.91-.32,1.39-.48c.29.28.61.54.92.79a7.66,7.66,0,0,1,1.25,1.23C329.38,285.52,331.32,286.87,330.1,288.45Z"/><path class="cls-27" d="M397.93,287l.11,0v.09Z"/><path class="cls-27" d="M402.48,287.75l-4.43-.78h0c0-1,0-1.9,0-2.85a4.17,4.17,0,0,1-.17-1.29c.06-.37.29-.63.86-.69a2.36,2.36,0,0,1,.47,0C398.52,285,402.15,285.33,402.48,287.75Z"/><path class="cls-1" d="M119.72,113c-3.5,0-7-.17-10.48.06-2.67.17-3.29-.76-3.31-3.33-.08-8.06-.2-8.06,8-8.06,5.49,0,11,.16,16.48-.06,2.86-.11,3.91.81,3.54,3.62a14.41,14.41,0,0,0,0,4c.47,3.08-.67,4.11-3.79,3.85C126.73,112.78,123.21,113,119.72,113Z"/><path class="cls-28" d="M119.83,76.88a58.83,58.83,0,0,0-8,.06c-4.72.67-6.12-.84-6.08-5.78,0-4.73,1.49-5.75,5.83-5.5,6.3.36,12.64.19,19,0,2.44-.06,3.78.41,3.43,3.22a21.83,21.83,0,0,0,0,5c.26,2.52-.9,3.1-3.18,3C127.16,76.77,123.49,76.88,119.83,76.88Z"/><path class="cls-1" d="M119.5,148.43H113c-6.91,0-8.77-2.61-7.08-9.46.5-2,1.79-1.61,3-1.62,7.3,0,14.61.07,21.91-.06,2.36,0,3.35.67,3.11,3.1a24.28,24.28,0,0,0,0,5c.25,2.39-.6,3.23-3,3.11C127.14,148.29,123.32,148.42,119.5,148.43Z"/><path class="cls-2" d="M63.84,38.52Q53.34,53.08,43,67.78c-1.35,1.94-2,2.49-3.83.33C28.81,55.71,17.78,43.94,4.67,34.33,3,33.09,3.2,32.23,4.25,30.79c6.84-9.41,13.62-18.87,20.43-28.3A20.4,20.4,0,0,1,26.39.65c1,.67,1.79,1.2,2.58,1.79,12.55,9.42,23.77,20.31,34.76,31.45C65.47,35.66,65.07,36.81,63.84,38.52Z"/><path class="cls-29" d="M663,293.05c-.7.61-1.37,1.26-2.06,1.89h-.09c-2.06.25-3.88-.22-4.82-2.23s-.06-3.75,1.82-4.91a2.39,2.39,0,0,1,.37-.17c1.33-.47,2.3.72,3.4,1.2.89-2.78-3.67-3.18-3.16-5.63A3.25,3.25,0,0,1,659,282a3.86,3.86,0,0,0,1.35-.28,1.23,1.23,0,0,0,.56-.7l0-.1.18.08a3.78,3.78,0,0,1,.63.33C665.39,283.56,666.26,290.17,663,293.05Z"/><path class="cls-30" d="M325.89,287.69c1.44-1.29,2.52.66,3.92.57-.15-2.74-4.09-3.07-3.55-6,1-.25,2.21.08,2.75-1.18,2.36.06,3.67.91,3.06,3.6-.72,3.2,1.66,7.32-2.85,9.37-.72-.2-1.06.17-1.24.8C322.89,293.17,322.43,291.61,325.89,287.69Z"/><path class="cls-31" d="M507.26,281.1c3.07-.66,7-.39,7.52,2.48.65,3.63,2.82,8.35-1.78,11.49-4.54-.86-6.66-3.36-5.88-8.14A40.41,40.41,0,0,0,507.26,281.1Z"/><path class="cls-32" d="M440.4,186.53c-1.83,1.17-3.84.42-5.74.43q-39.72.09-79.44,0c-2.19,0-4.51.79-4.44-3.19.07-3.61,1.81-3.5,4.33-3.49,21.49.05,43-.08,64.46.12,3.76,0,4.95-.88,4.59-4.64-.42-4.43,1.38-10.32-.86-13s-8.42-.81-12.85-.84c-18.32-.09-36.64,0-55,0-2.45,0-4.88.7-4.71-3.53.14-3.43,1-4.35,4.43-4.5,19-.82,37.9-2,57.55-3l-7.95-16.56c7.38,2.37,14.15,4.6,21,6.72,6.23,1.95,6.24,1.9,9.44-4.11-2.27,17.53-1.13,33.93,5.06,49.76Z"/><path class="cls-1" d="M497.61,98.91c-1.92,21.28-4.43,41.65-11.55,61.17a39.59,39.59,0,0,1-6.49,12.24c-5.24,6.25-11.67,5.32-14.58-2.28-3.95-10.31-3.24-20.94-.9-31.42C468.26,120,478.44,106.14,497.61,98.91Z"/><path class="cls-32" d="M335.73,114.31c1.73,5.34,3.61,10.64,5.12,16,.77,2.73,1.61,3.61,4.71,2.83a201.24,201.24,0,0,0,28.44-9,8,8,0,0,1,7.91.46c4.07,2.34,8.47,4.1,12.59,7.2-9.83,1-19.64,2.25-29.49,3-21.26,1.7-42.57,2.07-63.89,2.49-4.22.09-4.86-1.34-4.87-5s.33-5.62,4.95-5.43c10,.41,20,0,30,.2,3.06.07,4.16-.69,3.85-3.83a89.42,89.42,0,0,1-.06-9Z"/><path class="cls-28" d="M399,85.24c-5.24,4.88-11.15,7-16.88,9.51a3.68,3.68,0,0,1-3.73-.4,104.66,104.66,0,0,1-12.57-9.11Z"/><path class="cls-16" d="M302.1,54.65c2.92-.52,5.69-.42,5,4.79-.33,2.68-1.12,3.42-3.54,3.17a28.52,28.52,0,0,0-3.46,0c-2.7,0-5.25.82-5.37-3.87-.13-5.11,2.82-4,5.58-4.07Z"/><path class="cls-33" d="M299.9,82.35c-2.43.27-5.63.82-5.06-4.63.31-2.92,1.17-3.73,3.82-3.43a15.51,15.51,0,0,0,4,0c3.36-.47,4.5.63,4.53,4.24s-1.39,4.22-4.32,3.84C302.19,82.28,301.51,82.35,299.9,82.35Z"/><path class="cls-34" d="M263.59,54.58c1.89-.09,5.06-.86,4.58,4.39-.28,3.11-1.12,4.08-4,3.72a16.31,16.31,0,0,0-3.95,0c-3.15.41-3.95-1-3.85-4,.09-2.6.12-4.7,3.6-4.17A33.18,33.18,0,0,0,263.59,54.58Z"/><path class="cls-34" d="M262.12,82.42c-2.72-.17-5.85,1.19-5.89-4,0-5.47,3.34-4.11,6.21-4.16s5.69-1.07,5.78,4C268.31,83.86,264.87,82.17,262.12,82.42Z"/><path class="cls-1" d="M685,105c16.82,0,33.64.08,50.46-.07,3,0,4,.66,3.88,3.81-.26,6.82-.17,13.66,0,20.48,0,2.32-.56,3.16-3,3.16q-51-.12-101.93,0c-2.87,0-3.22-1.24-3.18-3.62.12-6.66.23-13.33,0-20-.13-3.16.88-3.87,3.9-3.85C651.68,105.08,668.33,105,685,105Z"/></g></g></svg>